Coordinates
version=1
nRows=8
nColumns=36
inDegrees=yes

Units are S.I. units (second, meters, Newtons, ...)
If the header above contains a line with 'inDegrees', this indicates whether rotational values are in degrees (yes) or radians (no).

endheader
time	pelvis_tilt	pelvis_list	pelvis_rotation	pelvis_tx	pelvis_ty	pelvis_tz	hip_flexion_r	hip_adduction_r	hip_rotation_r	knee_angle_r	knee_angle_r_beta	ankle_angle_r	subtalar_angle_r	mtp_angle_r	hip_flexion_l	hip_adduction_l	hip_rotation_l	knee_angle_l	knee_angle_l_beta	ankle_angle_l	subtalar_angle_l	mtp_angle_l	lumbar_extension	lumbar_bending	lumbar_rotation	arm_flex_r	arm_add_r	arm_rot_r	elbow_flex_r	pro_sup_r	arm_flex_l	arm_add_l	arm_rot_l	elbow_flex_l	pro_sup_l
      1.93333330	     -7.74604789	     -0.25480389	      1.53603259	      0.47578153	      1.24744784	     -0.11775542	     12.69196010	     -5.56290392	      0.38731823	      7.59581113	      0.13257191	    -28.26537151	     -0.27713705	     -7.49998595	     14.66673251	     -4.99326499	     -5.52632858	     11.54198551	      0.20144565	    -28.81310138	     -1.62538688	     -7.49998595	     -7.58680664	      0.90644421	      0.52187414	     48.39481408	    -38.25515097	     16.22447122	    112.26080589	     89.84569893	     31.27749325	    -40.04410249	     11.63026583	    105.02056578	     80.65180457
      1.95000000	     -7.85631048	     -0.06319657	      1.33424415	      0.47915184	      1.21331017	     -0.11961767	     13.01134208	     -6.13025689	     -0.00214767	      7.91735922	      0.13818399	    -29.16494458	      0.27072306	     -7.49998845	     14.53855822	     -4.89080604	     -5.11439553	     10.37750272	      0.18112159	    -29.04313708	     -2.19882941	     -7.49998845	     -7.30612228	      0.99539248	     -0.26240188	     45.21003747	    -35.18933818	     16.43520900	    109.88066802	     89.53703329	     26.36239289	    -39.19349792	      9.24628609	    104.90438690	     78.68303023
      1.96666670	     -8.17809141	      0.16531347	      1.38748678	      0.48367874	      1.17101148	     -0.12215894	     13.91571747	     -6.74885162	      0.06220077	      8.99731252	      0.15703273	    -29.64538930	      0.08088893	     -7.49998886	     15.51172929	     -4.68189992	     -5.27339853	     10.68083724	      0.18641578	    -29.86573008	     -2.80083158	     -7.49998886	     -7.25531319	      0.90503311	     -0.08856179	     41.13725220	    -34.58321553	     14.99912836	    110.18644443	     89.05782705	     22.64443175	    -37.99311639	      7.36840468	    104.23311227	     78.07774080
      1.98333330	     -8.29854244	      0.02551794	      0.87504446	      0.48380094	      1.13411355	     -0.11971864	     15.34738028	     -6.60967114	      0.27718938	     11.16925720	      0.19494031	    -31.06331270	     -0.48875052	     -7.49999101	     16.85974438	     -4.86635917	     -4.58158434	     12.25526710	      0.21389476	    -30.86339655	     -3.30642335	     -7.49999101	     -8.29576223	      1.79773085	     -0.85750919	     40.45515011	    -31.97383620	     16.98757285	    109.51769361	     89.01325375	     16.37897213	    -37.04200190	      2.90879385	    104.41560001	     76.37427746
      2.00000000	     -8.05193025	     -0.07267569	      0.54172981	      0.48887183	      1.09681709	     -0.11361160	     16.47222061	     -6.40580088	      0.90804828	     14.34691294	      0.25040087	    -29.71210354	     -0.89326927	     -7.49999230	     17.87580933	     -5.26435055	     -3.18789629	     15.01264594	      0.26202010	    -29.41421225	     -4.02712762	     -7.49999230	     -9.90816399	      1.55836903	     -0.88948345	     36.93818958	    -29.59449872	     16.84835464	    109.71728883	     86.19482431	     13.10117045	    -35.85946200	      1.11375517	    103.16840942	     73.97898517
      2.01666670	     -7.59246993	     -0.10458432	      0.47550406	      0.48413549	      1.05252214	     -0.11679786	     18.07131099	     -6.41664413	      2.71235300	     20.03362976	      0.34965280	    -22.86895707	     -3.05010415	     -7.49999494	     19.76438842	     -5.41500422	     -1.22603336	     20.55782620	      0.35880175	    -24.05045084	     -6.31416967	     -7.49999494	    -11.99619007	      1.55184566	     -1.65910681	     35.12628728	    -26.80254446	     16.89920594	    108.43893059	     89.18603390	      9.57719607	    -34.40934114	     -2.55240761	    102.10567124	     73.38037750
      2.03333330	     -6.63179204	      0.05165422	      0.41546388	      0.49191683	      1.00974972	     -0.11673630	     19.74710926	     -6.12187442	      4.71778674	     28.04542272	      0.48948497	    -11.90424311	     -7.82278020	     -7.49999644	     21.88925983	     -4.94262977	      0.41398426	     28.90279465	      0.50444893	    -12.87455410	     -8.34486561	     -7.49999644	    -14.29947190	      1.12782869	     -1.87291369	     31.62608816	    -24.83274669	     15.61403070	    108.11617875	     85.68659815	      7.08611972	    -32.74577343	     -4.41419929	     99.85298960	     71.38542971
      2.05000000	     -5.58602390	      0.19872224	      0.69793268	      0.50073420	      0.96650003	     -0.12976238	     21.62666241	     -6.35536057	      5.88964972	     36.91842860	      0.64434813	      0.42058708	    -10.65320321	     -7.49999747	     23.41632790	     -4.06529315	      1.32554591	     36.93906078	      0.64470823	     -0.12963172	     -9.64820167	     -7.49999747	    -16.73190884	      1.04408759	     -2.26397386	     29.02728135	    -23.80449863	     13.87476323	    106.99444636	     82.54550358	      4.94772289	    -30.51398770	     -5.76083081	     97.72582674	     69.70777146
